<svg id="filled_outline" height="512" viewBox="0 0 512 512" width="512" xmlns="http://www.w3.org/2000/svg" data-name="filled outline"><path d="m416 488v-216h-264l-19.32-24h-44.68l-24 24v216z" fill="#f7b023"/><path d="m112 24h272v352h-272z" fill="#afeaef"/><path d="m112 24v24h145.927a86.073 86.073 0 0 1 86.073 86.073v75.854a86.073 86.073 0 0 1 -86.073 86.073h-145.927v80h272v-352z" fill="#77d5d8"/><path d="m360 88h-24v-24h-32v24h-24v32h24v24h32v-24h24z" fill="#4abdcc"/><path d="m352 80h-24v-24h-32v24h-24v32h24v24h32v-24h24z" fill="#f44a2a"/><path d="m200 168h16v16h-16z" fill="#3b9daf"/><path d="m232 168h112v16h-112z" fill="#3b9daf"/><path d="m416 488h-352l72-168h352z" fill="#f9e48c"/><path d="m397.476 320a175.076 175.076 0 0 1 -160.921 106.111h-146.031l-26.524 61.889h352l72-168z" fill="#f7ce23"/><g fill="#3b9daf"><path d="m200 224h96v16h-96z"/><path d="m312 224h24v16h-24z"/><path d="m200 256h64v16h-64z"/><path d="m280 256h72v16h-72z"/></g><path d="m144 160h32v32h-32z" fill="#066991"/><path d="m144 232h32v32h-32z" fill="#066991"/><path d="m384 272h16v48h-16z" fill="#f99321"/><path d="m488 312h-64v-40a8 8 0 0 0 -8-8h-24v-240a8 8 0 0 0 -8-8h-272a8 8 0 0 0 -8 8v216h-16a8 8 0 0 0 -5.657 2.343l-24 24a8 8 0 0 0 -2.343 5.657v216h.012a7.973 7.973 0 0 0 7.988 8h352a8 8 0 0 0 7.354-4.849l72-168a8 8 0 0 0 -7.354-11.151zm-80-32v32h-16v-32zm-32-248v280h-240a8 8 0 0 0 -7.353 4.849l-8.647 20.175v-305.024zm-284.686 224h12.686v118.357l-32 74.667v-173.711zm319.411 224h-334.593l65.144-152h334.592z"/><path d="m272 120h16v16a8 8 0 0 0 8 8h32a8 8 0 0 0 8-8v-16h16a8 8 0 0 0 8-8v-32a8 8 0 0 0 -8-8h-16v-16a8 8 0 0 0 -8-8h-32a8 8 0 0 0 -8 8v16h-16a8 8 0 0 0 -8 8v32a8 8 0 0 0 8 8zm8-32h16a8 8 0 0 0 8-8v-16h16v16a8 8 0 0 0 8 8h16v16h-16a8 8 0 0 0 -8 8v16h-16v-16a8 8 0 0 0 -8-8h-16z"/><path d="m200 168h16v16h-16z"/><path d="m232 168h112v16h-112z"/><path d="m200 224h96v16h-96z"/><path d="m312 224h24v16h-24z"/><path d="m200 256h64v16h-64z"/><path d="m280 256h72v16h-72z"/><path d="m144 200h32a8 8 0 0 0 8-8v-32a8 8 0 0 0 -8-8h-32a8 8 0 0 0 -8 8v32a8 8 0 0 0 8 8zm8-32h16v16h-16z"/><path d="m144 272h32a8 8 0 0 0 8-8v-32a8 8 0 0 0 -8-8h-32a8 8 0 0 0 -8 8v32a8 8 0 0 0 8 8zm8-32h16v16h-16z"/></svg>