<svg height="512" viewBox="0 0 64 64" width="512" xmlns="http://www.w3.org/2000/svg"><g id="mobile-screen-shop-store-package"><path d="m7 53h36a0 0 0 0 1 0 0v6a2 2 0 0 1 -2 2h-32a2 2 0 0 1 -2-2v-6a0 0 0 0 1 0 0z" fill="#e9e9ea"/><path d="m7 11h36v42h-36z" fill="#57a4ff"/><path d="m32 50h14v11h-14z" fill="#91dc5a"/><path d="m32 47h14v3h-14z" fill="#64c37d"/><path d="m60 61h-20l2-19h16z" fill="#ea348b"/><g fill="#ff9811"><circle cx="20" cy="38" r="2"/><circle cx="30" cy="38" r="2"/><path d="m33 25-1 8h-13v-7.92-.08z"/></g><path d="m22 7v6a3 3 0 0 1 -6 0v-6z" fill="#ff5023"/><path d="m16 7v6a3 3 0 0 1 -6 0v-6z" fill="#ffda44"/><path d="m28 7v6a3 3 0 0 1 -6 0v-6z" fill="#ffda44"/><path d="m10 7v6a3 3 0 0 1 -6 0l3-6z" fill="#ff5023"/><path d="m34 7v6a3 3 0 0 1 -6 0v-6z" fill="#ff5023"/><path d="m43 16a3 3 0 0 1 -3-3v-6h3l3 6a3 3 0 0 1 -3 3z" fill="#ff5023"/><path d="m40 7v6a3 3 0 0 1 -6 0v-6z" fill="#ffda44"/><path d="m43 5v2h-36v-2a2.006 2.006 0 0 1 2-2h32a2.006 2.006 0 0 1 2 2z" fill="#e9e9ea"/><rect height="2" rx="1" width="4" x="23" y="56"/><path d="m30 35h-10a3 3 0 1 0 3 3 2.966 2.966 0 0 0 -.184-1h4.368a2.966 2.966 0 0 0 -.184 1 3 3 0 1 0 3-3zm-9 3a1 1 0 1 1 -1-1 1 1 0 0 1 1 1zm9 1a1 1 0 1 1 1-1 1 1 0 0 1 -1 1z"/><path d="m58.99 41.9a1 1 0 0 0 -.99-.9h-3v-2a5 5 0 0 0 -10 0v2h-1v-24.14a4 4 0 0 0 3-3.86 1 1 0 0 0 -.11-.45l-2.89-5.79v-1.76a3.009 3.009 0 0 0 -3-3h-32a3.009 3.009 0 0 0 -3 3v1.76l-2.89 5.79a1 1 0 0 0 -.11.45 4 4 0 0 0 3 3.86v42.14a3.009 3.009 0 0 0 3 3h51a1 1 0 0 0 .74-.33.99.99 0 0 0 .25-.77zm-11.99-2.9a3 3 0 0 1 6 0v2h-6zm-2.01-25.79a2 2 0 0 1 -3.99-.21v-5h1.38zm-36.99-8.21a1 1 0 0 1 1-1h32a1 1 0 0 1 1 1v1h-34zm31 3v5a2 2 0 0 1 -4 0v-5zm-6 0v5a2 2 0 0 1 -4 0v-5zm-6 0v5a2 2 0 0 1 -4 0v-5zm-6 0v5a2 2 0 0 1 -4 0v-5zm-6 0v5a2 2 0 0 1 -4 0v-5zm-9.99 5.21 2.61-5.21h1.38v5a2 2 0 0 1 -3.99.21zm25.99 46.79h-22a1 1 0 0 1 -1-1v-5h23zm8.1 0h-6.1v-9h7.05zm1.16-11h-7.26v-1h7.36zm.31-3h-8.57a1 1 0 0 0 -1 1v5h-23v-35.14a4.054 4.054 0 0 0 2-1.24 3.951 3.951 0 0 0 6 0 3.951 3.951 0 0 0 6 0 3.951 3.951 0 0 0 6 0 3.951 3.951 0 0 0 6 0 3.951 3.951 0 0 0 6 0 4.054 4.054 0 0 0 2 1.24v24.14a1 1 0 0 0 -.99.9zm.54 14 1.79-17h2.1v3h2v-3h6v3h2v-3h2.1l1.79 17z"/><path d="m33.75 24.34a.981.981 0 0 0 -.75-.34h-13v-3a1 1 0 0 0 -1-1h-4v2h3v11a1 1 0 0 0 1 1h13a1 1 0 0 0 .99-.88l1-8a.968.968 0 0 0 -.24-.78zm-2.63 7.66h-11.12v-6h11.87z"/></g></svg>